<svg width="360" height="140" viewBox="0 0 360 140" fill="none" xmlns="http://www.w3.org/2000/svg">
<path d="M13.2 97.3C10 97.3 7.6 97.05 6 96.55C4.5 96.05 3.75 95.4 3.75 94.6C3.75 93.8 4.3 92.55 5.4 90.85L28.05 57.25L6.75 24.85C5.65 23.15 5.1 21.85 5.1 20.95C5.1 20.15 5.85 19.5 7.35 19C8.95 18.5 11.35 18.25 14.55 18.25H19.35C21.55 18.25 23.4 18.4 24.9 18.7C26.5 18.9 27.7 19.7 28.5 21.1L37.65 35.95C38.05 36.55 38.4 37.15 38.7 37.75C39.1 38.35 39.5 38.95 39.9 39.55C40.4 38.85 40.85 38.2 41.25 37.6C41.65 37 42.05 36.35 42.45 35.65L51.75 21.1C52.55 19.7 53.7 18.9 55.2 18.7C56.8 18.4 58.7 18.25 60.9 18.25H65.25C71.55 18.25 74.7 19.15 74.7 20.95C74.7 21.75 74.15 23 73.05 24.7L51.15 57.1L73.35 90.7C74.45 92.4 75 93.7 75 94.6C75 95.4 74.2 96.05 72.6 96.55C71.1 97.05 68.75 97.3 65.55 97.3H60.75C58.55 97.3 56.65 97.15 55.05 96.85C53.55 96.55 52.4 95.75 51.6 94.45L41.25 77.95C40.95 77.45 40.6 76.95 40.2 76.45C39.9 75.85 39.6 75.3 39.3 74.8C39 75.3 38.65 75.85 38.25 76.45C37.95 76.95 37.65 77.45 37.35 77.95L26.85 94.45C26.05 95.75 24.85 96.55 23.25 96.85C21.75 97.15 19.9 97.3 17.7 97.3H13.2ZM98.3027 98.2C90.2027 98.2 84.4527 96.1 81.0527 91.9C77.7527 87.6 76.1027 82.4 76.1027 76.3C76.1027 73.2 76.5527 70.05 77.4527 66.85C78.4527 63.55 80.4027 60.5 83.3027 57.7C86.2027 54.9 90.5027 52.65 96.2027 50.95C102.003 49.25 109.653 48.4 119.153 48.4V43.45C119.153 40.55 118.203 38.4 116.303 37C114.503 35.6 111.553 34.9 107.453 34.9C103.853 34.9 100.703 35.3 98.0027 36.1C95.4027 36.9 93.2527 37.7 91.5527 38.5C89.9527 39.3 88.8527 39.7 88.2527 39.7C87.2527 39.7 86.1027 38.95 84.8027 37.45C83.6027 35.85 82.5527 34.1 81.6527 32.2C80.8527 30.2 80.4527 28.7 80.4527 27.7C80.4527 26 81.6527 24.35 84.0527 22.75C86.5527 21.15 89.9527 19.85 94.2527 18.85C98.6527 17.85 103.603 17.35 109.103 17.35C117.003 17.35 123.303 18.45 128.003 20.65C132.703 22.75 136.103 25.7 138.203 29.5C140.303 33.2 141.353 37.5 141.353 42.4V70.6C141.353 75.8 141.503 79.8 141.803 82.6C142.103 85.3 142.403 87.35 142.703 88.75C143.003 90.05 143.153 91.25 143.153 92.35C143.153 93.25 142.453 94 141.053 94.6C139.753 95.2 138.103 95.7 136.103 96.1C134.203 96.5 132.303 96.8 130.403 97C128.603 97.1 127.253 97.15 126.353 97.15C124.753 97.15 123.553 96.6 122.753 95.5C122.053 94.3 121.553 92.9 121.253 91.3C120.953 89.6 120.653 88.1 120.353 86.8C120.053 87.4 119.003 88.65 117.203 90.55C115.503 92.35 113.053 94.1 109.853 95.8C106.753 97.4 102.903 98.2 98.3027 98.2ZM105.653 80.65C108.553 80.65 111.203 79.75 113.603 77.95C116.103 76.15 117.953 73.9 119.153 71.2V62.95C115.553 62.95 112.453 63.2 109.853 63.7C107.253 64.2 105.053 64.9 103.253 65.8C101.553 66.7 100.253 67.85 99.3527 69.25C98.5527 70.65 98.1527 72.25 98.1527 74.05C98.1527 75.95 98.7527 77.55 99.9527 78.85C101.253 80.05 103.153 80.65 105.653 80.65ZM163.841 97.3C157.841 97.3 154.841 95.7 154.841 92.5V44.95C154.841 39.95 154.691 36.1 154.391 33.4C154.091 30.7 153.791 28.7 153.491 27.4C153.191 26 153.041 24.8 153.041 23.8C153.041 22.9 153.691 22.15 154.991 21.55C156.391 20.95 158.041 20.45 159.941 20.05C161.941 19.65 163.841 19.4 165.641 19.3C167.541 19.1 168.941 19 169.841 19C171.441 19 172.591 19.55 173.291 20.65C174.091 21.75 174.641 23.05 174.941 24.55C175.241 26.05 175.541 27.45 175.841 28.75C177.441 25.85 179.491 23.25 181.991 20.95C184.491 18.55 187.891 17.35 192.191 17.35C195.891 17.35 198.241 18.1 199.241 19.6C200.241 21.1 200.741 23.05 200.741 25.45C200.741 26.35 200.541 27.85 200.141 29.95C199.841 31.95 199.341 33.8 198.641 35.5C197.941 37.2 197.091 38.05 196.091 38.05C195.091 38.05 194.041 37.85 192.941 37.45C191.841 37.05 190.541 36.85 189.041 36.85C187.041 36.85 185.241 37.3 183.641 38.2C182.041 39 180.691 40 179.591 41.2C178.491 42.3 177.641 43.35 177.041 44.35V92.5C177.041 95.7 174.041 97.3 168.041 97.3H163.841ZM234.293 98.2C222.393 98.2 213.343 94.7 207.143 87.7C200.943 80.7 197.843 70.7 197.843 57.7C197.843 44.6 200.943 34.6 207.143 27.7C213.343 20.8 222.393 17.35 234.293 17.35C246.193 17.35 255.193 20.8 261.293 27.7C267.493 34.6 270.593 44.6 270.593 57.7C270.593 70.7 267.493 80.7 261.293 87.7C255.193 94.7 246.193 98.2 234.293 98.2ZM234.293 80.65C239.093 80.65 242.593 78.7 244.793 74.8C246.993 70.9 248.093 65.2 248.093 57.7C248.093 50.2 246.993 44.55 244.793 40.75C242.593 36.85 239.093 34.9 234.293 34.9C229.493 34.9 225.943 36.85 223.643 40.75C221.443 44.55 220.343 50.2 220.343 57.7C220.343 65.2 221.443 70.9 223.643 74.8C225.943 78.7 229.493 80.65 234.293 80.65ZM290.443 127.9C284.443 127.9 281.443 126.3 281.443 123.1V44.95C281.443 39.95 281.293 36.1 280.993 33.4C280.693 30.7 280.393 28.7 280.093 27.4C279.793 26 279.643 24.8 279.643 23.8C279.643 22.9 280.293 22.15 281.593 21.55C282.993 20.95 284.643 20.45 286.543 20.05C288.543 19.65 290.443 19.4 292.243 19.3C294.143 19.1 295.543 19 296.443 19C298.043 19 299.193 19.55 299.893 20.65C300.693 21.75 301.243 23.05 301.543 24.55C301.843 26.05 302.143 27.4 302.443 28.6C304.143 25.4 306.743 22.75 310.243 20.65C313.843 18.45 317.943 17.35 322.543 17.35C327.943 17.35 332.743 18.9 336.943 22C341.243 25.1 344.593 29.7 346.993 35.8C349.393 41.8 350.593 49.15 350.593 57.85C350.593 70.05 347.843 79.85 342.343 87.25C336.843 94.55 329.043 98.2 318.943 98.2C315.443 98.2 312.393 97.7 309.793 96.7C307.293 95.7 305.243 94.65 303.643 93.55V123.1C303.643 126.3 300.643 127.9 294.643 127.9H290.443ZM314.143 80.65C318.843 80.65 322.343 78.75 324.643 74.95C326.943 71.05 328.093 65.35 328.093 57.85C328.093 50.55 327.093 45 325.093 41.2C323.093 37.4 320.043 35.5 315.943 35.5C313.143 35.5 310.743 36.4 308.743 38.2C306.743 40 305.043 42.05 303.643 44.35V77.8C304.843 78.5 306.293 79.15 307.993 79.75C309.793 80.35 311.843 80.65 314.143 80.65Z" fill="#EE2455"/>
</svg>
